@startuml libuv

!include v8.puml

namespace libuv <<ExternalCModule>> {
  class uv_tcp_t implements uv_stream_t {
    int uv_tcp_init(uv_loop_t*, uv_tcp_t* handle)
    int uv_tcp_bind(uv_tcp_t* handle, const struct sockaddr* addr, unsigned int flags)
  }

  uv_tcp_t ..> v8.FunctionCallbackInfo
  uv_tcp_t ..> utils
  

  abstract uv_stream_t {
    int uv_listen(uv_stream_t* stream, int backlog, uv_connection_cb cb)
  }

  class utils {
    int uv_ip4_addr(const char* ip, int port, struct sockaddr_in* addr)
    int uv_ip6_addr(const char* ip, int port, struct sockaddr_in6* addr)
  }

  note "It is a C module where term class does not exist. \n We use class as an assemble of functions in the module." as _
}
@enduml
